<mxfile host="app.diagrams.net" agent="Mozilla/5.0 (Windows NT 10.0; Win64; x64) AppleWebKit/537.36 (KHTML, like Gecko) Chrome/136.0.0.0 Safari/537.36 Edg/136.0.0.0" version="27.0.6">
  <diagram name="Страница — 1" id="WKGYQiWRMjDiwxb9k2Cm">
    <mxGraphModel dx="2670" dy="295" grid="1" gridSize="10" guides="1" tooltips="1" connect="1" arrows="1" fold="1" page="1" pageScale="1" pageWidth="827" pageHeight="1169" math="0" shadow="0">
      <root>
        <mxCell id="0" />
        <mxCell id="1" parent="0" />
        <mxCell id="-3blAlC5jaE96Asf9ILh-1" style="edgeStyle=orthogonalEdgeStyle;rounded=0;orthogonalLoop=1;jettySize=auto;html=1;exitX=0.5;exitY=1;exitDx=0;exitDy=0;entryX=0.5;entryY=0;entryDx=0;entryDy=0;" edge="1" parent="1" source="-3blAlC5jaE96Asf9ILh-2" target="-3blAlC5jaE96Asf9ILh-6">
          <mxGeometry relative="1" as="geometry" />
        </mxCell>
        <mxCell id="-3blAlC5jaE96Asf9ILh-2" value="Начало" style="ellipse;whiteSpace=wrap;html=1;" vertex="1" parent="1">
          <mxGeometry x="685" y="1870" width="160" height="50" as="geometry" />
        </mxCell>
        <mxCell id="-3blAlC5jaE96Asf9ILh-3" value="Конец" style="ellipse;whiteSpace=wrap;html=1;" vertex="1" parent="1">
          <mxGeometry x="687" y="2675" width="160" height="50" as="geometry" />
        </mxCell>
        <mxCell id="-3blAlC5jaE96Asf9ILh-4" value="&lt;font style=&quot;font-size: 30px;&quot;&gt;&lt;b style=&quot;&quot;&gt;Блоксхема #4&lt;/b&gt;&lt;/font&gt;" style="text;html=1;align=center;verticalAlign=middle;resizable=0;points=[];autosize=1;strokeColor=none;fillColor=none;" vertex="1" parent="1">
          <mxGeometry x="650" y="1730" width="230" height="50" as="geometry" />
        </mxCell>
        <mxCell id="-3blAlC5jaE96Asf9ILh-5" style="edgeStyle=orthogonalEdgeStyle;rounded=0;orthogonalLoop=1;jettySize=auto;html=1;exitX=0.5;exitY=1;exitDx=0;exitDy=0;entryX=0.5;entryY=0;entryDx=0;entryDy=0;" edge="1" parent="1" source="-3blAlC5jaE96Asf9ILh-6" target="-3blAlC5jaE96Asf9ILh-8">
          <mxGeometry relative="1" as="geometry" />
        </mxCell>
        <mxCell id="-3blAlC5jaE96Asf9ILh-6" value="senderType = Console.ReadLine()" style="rounded=0;whiteSpace=wrap;html=1;" vertex="1" parent="1">
          <mxGeometry x="652" y="1957.5" width="226" height="60" as="geometry" />
        </mxCell>
        <mxCell id="-3blAlC5jaE96Asf9ILh-7" style="edgeStyle=orthogonalEdgeStyle;rounded=0;orthogonalLoop=1;jettySize=auto;html=1;exitX=0.5;exitY=1;exitDx=0;exitDy=0;entryX=0.5;entryY=0;entryDx=0;entryDy=0;" edge="1" parent="1" source="-3blAlC5jaE96Asf9ILh-8" target="-3blAlC5jaE96Asf9ILh-10">
          <mxGeometry relative="1" as="geometry" />
        </mxCell>
        <mxCell id="-3blAlC5jaE96Asf9ILh-8" value="v = ulong.Parse(Console.ReadLine())" style="rounded=0;whiteSpace=wrap;html=1;" vertex="1" parent="1">
          <mxGeometry x="652" y="2045" width="226" height="60" as="geometry" />
        </mxCell>
        <mxCell id="-3blAlC5jaE96Asf9ILh-9" style="edgeStyle=orthogonalEdgeStyle;rounded=0;orthogonalLoop=1;jettySize=auto;html=1;exitX=0.5;exitY=1;exitDx=0;exitDy=0;entryX=0.5;entryY=0;entryDx=0;entryDy=0;" edge="1" parent="1" source="-3blAlC5jaE96Asf9ILh-10" target="-3blAlC5jaE96Asf9ILh-12">
          <mxGeometry relative="1" as="geometry" />
        </mxCell>
        <mxCell id="-3blAlC5jaE96Asf9ILh-10" value="b0 = (byte)((v &amp;gt;&amp;gt; 24) &amp;amp; 0xFF)" style="rounded=0;whiteSpace=wrap;html=1;" vertex="1" parent="1">
          <mxGeometry x="652" y="2135" width="226" height="60" as="geometry" />
        </mxCell>
        <mxCell id="-3blAlC5jaE96Asf9ILh-11" style="edgeStyle=orthogonalEdgeStyle;rounded=0;orthogonalLoop=1;jettySize=auto;html=1;exitX=0.5;exitY=1;exitDx=0;exitDy=0;entryX=0.5;entryY=0;entryDx=0;entryDy=0;" edge="1" parent="1" source="-3blAlC5jaE96Asf9ILh-12" target="-3blAlC5jaE96Asf9ILh-14">
          <mxGeometry relative="1" as="geometry" />
        </mxCell>
        <mxCell id="-3blAlC5jaE96Asf9ILh-12" value="b1 = (byte)((v &amp;gt;&amp;gt; 16) &amp;amp; 0xFF)" style="rounded=0;whiteSpace=wrap;html=1;" vertex="1" parent="1">
          <mxGeometry x="652" y="2225" width="226" height="60" as="geometry" />
        </mxCell>
        <mxCell id="-3blAlC5jaE96Asf9ILh-13" style="edgeStyle=orthogonalEdgeStyle;rounded=0;orthogonalLoop=1;jettySize=auto;html=1;exitX=0.5;exitY=1;exitDx=0;exitDy=0;entryX=0.5;entryY=0;entryDx=0;entryDy=0;" edge="1" parent="1" source="-3blAlC5jaE96Asf9ILh-14" target="-3blAlC5jaE96Asf9ILh-16">
          <mxGeometry relative="1" as="geometry" />
        </mxCell>
        <mxCell id="-3blAlC5jaE96Asf9ILh-14" value="b2 = (byte)((v &amp;gt;&amp;gt; 8) &amp;amp; 0xFF)" style="rounded=0;whiteSpace=wrap;html=1;" vertex="1" parent="1">
          <mxGeometry x="654" y="2315" width="226" height="60" as="geometry" />
        </mxCell>
        <mxCell id="-3blAlC5jaE96Asf9ILh-15" style="edgeStyle=orthogonalEdgeStyle;rounded=0;orthogonalLoop=1;jettySize=auto;html=1;exitX=0.5;exitY=1;exitDx=0;exitDy=0;entryX=0.5;entryY=0;entryDx=0;entryDy=0;" edge="1" parent="1" source="-3blAlC5jaE96Asf9ILh-16" target="-3blAlC5jaE96Asf9ILh-17">
          <mxGeometry relative="1" as="geometry" />
        </mxCell>
        <mxCell id="-3blAlC5jaE96Asf9ILh-16" value="b3 = (byte)(v &amp;amp; 0xFF)" style="rounded=0;whiteSpace=wrap;html=1;" vertex="1" parent="1">
          <mxGeometry x="654" y="2405" width="226" height="60" as="geometry" />
        </mxCell>
        <mxCell id="-3blAlC5jaE96Asf9ILh-17" value="result = ((ulong)b3 &amp;lt;&amp;lt; 24) | ((ulong)b2 &amp;lt;&amp;lt; 16) | ((ulong)b1 &amp;lt;&amp;lt; 8) | b0" style="rounded=0;whiteSpace=wrap;html=1;" vertex="1" parent="1">
          <mxGeometry x="654" y="2495" width="226" height="60" as="geometry" />
        </mxCell>
        <mxCell id="-3blAlC5jaE96Asf9ILh-18" style="edgeStyle=orthogonalEdgeStyle;rounded=0;orthogonalLoop=1;jettySize=auto;html=1;exitX=0.5;exitY=1;exitDx=0;exitDy=0;entryX=0.5;entryY=0;entryDx=0;entryDy=0;" edge="1" parent="1" source="-3blAlC5jaE96Asf9ILh-19" target="-3blAlC5jaE96Asf9ILh-3">
          <mxGeometry relative="1" as="geometry" />
        </mxCell>
        <mxCell id="-3blAlC5jaE96Asf9ILh-19" value="Console.WriteLine(result)" style="rounded=0;whiteSpace=wrap;html=1;" vertex="1" parent="1">
          <mxGeometry x="654" y="2580" width="226" height="60" as="geometry" />
        </mxCell>
        <mxCell id="-3blAlC5jaE96Asf9ILh-20" style="edgeStyle=orthogonalEdgeStyle;rounded=0;orthogonalLoop=1;jettySize=auto;html=1;exitX=0.5;exitY=1;exitDx=0;exitDy=0;entryX=0.478;entryY=0.019;entryDx=0;entryDy=0;entryPerimeter=0;" edge="1" parent="1" source="-3blAlC5jaE96Asf9ILh-17" target="-3blAlC5jaE96Asf9ILh-19">
          <mxGeometry relative="1" as="geometry" />
        </mxCell>
      </root>
    </mxGraphModel>
  </diagram>
</mxfile>
